<svg width="40" height="48" viewBox="0 0 40 48" fill="none" xmlns="http://www.w3.org/2000/svg">
<path d="M8.67969 14.4453H24.1484V18.3125H8.67969V14.4453ZM8.67969 22.1797H31.8828V26.0469H8.67969V22.1797ZM8.67969 29.9141H14.4611V33.7812H8.67969V29.9141Z" fill="white"/>
<path d="M24.1484 6.71094L18.3477 0.910156V4.77734H4.8125C3.78686 4.77734 2.80322 5.18478 2.07799 5.91002C1.35275 6.63525 0.945313 7.61889 0.945312 8.64453V39.582C0.945313 40.6077 1.35275 41.5913 2.07799 42.3165C2.80322 43.0418 3.78686 43.4492 4.8125 43.4492H12.5469V39.582H4.8125V8.64453H18.3477V12.5117L24.1484 6.71094ZM16.4141 41.5156L22.2148 47.3164V43.4492H35.75C36.7756 43.4492 37.7593 43.0418 38.4845 42.3165C39.2098 41.5913 39.6172 40.6077 39.6172 39.582V8.64453C39.6172 7.61889 39.2098 6.63525 38.4845 5.91002C37.7593 5.18478 36.7756 4.77734 35.75 4.77734H28.0156V8.64453H35.75V39.582H22.2148V35.7148L16.4141 41.5156Z" fill="white"/>
</svg>
