<svg width="150" height="37" viewBox="0 0 150 37" fill="none" xmlns="http://www.w3.org/2000/svg">
<path d="M46.6556 29.3832L52.6855 17.4514V17.352H45.6613V14.8378H55.8673V17.3875L49.8304 29.3832H46.6556Z" fill="#171E14"/>
<path d="M63.0921 29.5821C62.0883 29.5821 61.1934 29.3974 60.4074 29.0281C59.6262 28.6588 59.0059 28.1498 58.5466 27.5011C58.0873 26.8525 57.8482 26.1091 57.8293 25.271H60.8122C60.8454 25.8345 61.0821 26.2914 61.5225 26.6418C61.9628 26.9921 62.486 27.1673 63.0921 27.1673C63.575 27.1673 64.0012 27.0608 64.3705 26.8477C64.7445 26.6299 65.0357 26.3293 65.2441 25.9457C65.4571 25.5575 65.5637 25.1124 65.5637 24.6105C65.5637 24.0991 65.4548 23.6493 65.237 23.2611C65.0239 22.8728 64.728 22.5698 64.3492 22.352C63.9704 22.1342 63.5371 22.0229 63.0495 22.0182C62.6233 22.0182 62.209 22.1058 61.8066 22.281C61.4088 22.4562 61.0987 22.6953 60.8762 22.9983L58.1418 22.5082L58.8307 14.8378H67.7228V17.352H61.3662L60.9898 20.9955H61.075C61.3307 20.6356 61.7166 20.3373 62.2327 20.1006C62.7488 19.8638 63.3264 19.7455 63.9656 19.7455C64.8416 19.7455 65.6228 19.9514 66.3094 20.3633C66.996 20.7753 67.5381 21.3411 67.9358 22.0608C68.3335 22.7758 68.53 23.5996 68.5253 24.5324C68.53 25.5125 68.3028 26.3837 67.8435 27.146C67.3889 27.9036 66.7521 28.5002 65.933 28.9358C65.1186 29.3667 64.1716 29.5821 63.0921 29.5821Z" fill="#171E14"/>
<path d="M78.646 19.021C78.5892 18.4481 78.3454 18.003 77.9145 17.6858C77.4836 17.3686 76.8989 17.2099 76.1603 17.2099C75.6584 17.2099 75.2346 17.281 74.8889 17.423C74.5433 17.5603 74.2781 17.7521 74.0935 17.9983C73.9136 18.2445 73.8236 18.5239 73.8236 18.8364C73.8141 19.0968 73.8686 19.324 73.987 19.5182C74.1101 19.7123 74.2781 19.8804 74.4912 20.0224C74.7043 20.1597 74.9505 20.2805 75.2299 20.3847C75.5092 20.4841 75.8075 20.5693 76.1247 20.6403L77.4316 20.9528C78.066 21.0949 78.6484 21.2843 79.1787 21.521C79.709 21.7578 80.1683 22.049 80.5566 22.3946C80.9448 22.7402 81.2455 23.1474 81.4585 23.6162C81.6763 24.0849 81.7876 24.6223 81.7924 25.2284C81.7876 26.1186 81.5603 26.8903 81.1105 27.5437C80.6655 28.1924 80.0215 28.6967 79.1787 29.0565C78.3406 29.4116 77.3298 29.5892 76.146 29.5892C74.9718 29.5892 73.9491 29.4093 73.0779 29.0494C72.2114 28.6896 71.5343 28.1569 71.0466 27.4514C70.5637 26.7412 70.3103 25.8629 70.2867 24.8165H73.2625C73.2957 25.3042 73.4353 25.7114 73.6816 26.0381C73.9325 26.36 74.2663 26.6039 74.683 26.7696C75.1044 26.9306 75.5802 27.0111 76.1105 27.0111C76.6314 27.0111 77.0835 26.9353 77.4671 26.7838C77.8553 26.6323 78.156 26.4216 78.3691 26.1517C78.5821 25.8818 78.6887 25.5717 78.6887 25.2213C78.6887 24.8946 78.5916 24.62 78.3975 24.3974C78.2081 24.1749 77.9287 23.9855 77.5594 23.8293C77.1948 23.673 76.7474 23.531 76.2171 23.4031L74.6333 23.0054C73.4069 22.7071 72.4387 22.2407 71.7284 21.6062C71.0182 20.9718 70.6655 20.1171 70.6702 19.0423C70.6655 18.1616 70.8998 17.3922 71.3733 16.7341C71.8515 16.0759 72.5073 15.5622 73.3406 15.1929C74.174 14.8236 75.121 14.6389 76.1816 14.6389C77.2611 14.6389 78.2033 14.8236 79.0083 15.1929C79.8179 15.5622 80.4477 16.0759 80.8975 16.7341C81.3473 17.3922 81.5793 18.1545 81.5935 19.021H78.646Z" fill="#171E14"/>
<path d="M90.7998 24.7383V18.4741H93.8254V29.3832H90.9205V27.4017H90.8069C90.5607 28.0409 90.1511 28.5546 89.5782 28.9429C89.01 29.3312 88.3164 29.5253 87.4973 29.5253C86.7681 29.5253 86.1265 29.3596 85.5725 29.0281C85.0186 28.6967 84.5853 28.2256 84.2728 27.6148C83.9651 27.004 83.8088 26.2724 83.8041 25.4202V18.4741H86.8296V24.8804C86.8344 25.5243 87.0072 26.0333 87.3481 26.4074C87.689 26.7814 88.1459 26.9685 88.7188 26.9685C89.0834 26.9685 89.4243 26.8856 89.7416 26.7199C90.0588 26.5494 90.3145 26.2985 90.5086 25.967C90.7075 25.6356 90.8045 25.226 90.7998 24.7383Z" fill="#171E14"/>
<path d="M96.2455 29.3832V18.4741H99.1787V20.3776H99.2924C99.4912 19.7005 99.825 19.1891 100.294 18.8435C100.763 18.4931 101.302 18.3179 101.913 18.3179C102.065 18.3179 102.228 18.3274 102.403 18.3463C102.578 18.3652 102.732 18.3913 102.865 18.4244V21.1091C102.723 21.0665 102.526 21.0286 102.275 20.9955C102.024 20.9623 101.795 20.9457 101.586 20.9457C101.141 20.9457 100.744 21.0428 100.393 21.2369C100.048 21.4263 99.7729 21.6915 99.5693 22.0324C99.3705 22.3733 99.271 22.7663 99.271 23.2114V29.3832H96.2455Z" fill="#171E14"/>
<path d="M107.227 29.5892C106.531 29.5892 105.911 29.4685 105.367 29.227C104.822 28.9808 104.391 28.6186 104.074 28.1403C103.761 27.6574 103.605 27.0561 103.605 26.3364C103.605 25.7303 103.716 25.2213 103.939 24.8094C104.162 24.3974 104.465 24.066 104.848 23.8151C105.232 23.5641 105.667 23.3747 106.155 23.2469C106.647 23.119 107.163 23.0291 107.703 22.977C108.338 22.9107 108.849 22.8491 109.237 22.7923C109.626 22.7308 109.907 22.6408 110.082 22.5224C110.258 22.4041 110.345 22.2289 110.345 21.9969V21.9543C110.345 21.5044 110.203 21.1564 109.919 20.9102C109.64 20.664 109.242 20.5409 108.726 20.5409C108.181 20.5409 107.748 20.6616 107.426 20.9031C107.104 21.1399 106.891 21.4382 106.787 21.798L103.989 21.5707C104.131 20.9079 104.41 20.3349 104.827 19.852C105.243 19.3643 105.781 18.9902 106.439 18.7298C107.102 18.4647 107.869 18.3321 108.74 18.3321C109.346 18.3321 109.926 18.4031 110.48 18.5452C111.039 18.6872 111.534 18.9074 111.965 19.2057C112.4 19.504 112.743 19.8875 112.994 20.3562C113.245 20.8203 113.371 21.3766 113.371 22.0253V29.3832H110.502V27.8705H110.416C110.241 28.2114 110.007 28.512 109.713 28.7724C109.42 29.0281 109.067 29.2294 108.655 29.3761C108.243 29.5182 107.767 29.5892 107.227 29.5892ZM108.094 27.5011C108.539 27.5011 108.932 27.4135 109.273 27.2383C109.614 27.0584 109.881 26.8169 110.075 26.5139C110.27 26.2109 110.367 25.8676 110.367 25.4841V24.3264C110.272 24.388 110.142 24.4448 109.976 24.4969C109.815 24.5442 109.633 24.5892 109.429 24.6318C109.225 24.6697 109.022 24.7052 108.818 24.7383C108.615 24.7668 108.43 24.7928 108.264 24.8165C107.909 24.8686 107.599 24.9514 107.334 25.0651C107.069 25.1787 106.863 25.3326 106.716 25.5267C106.569 25.7161 106.496 25.9528 106.496 26.2369C106.496 26.6489 106.645 26.9637 106.943 27.1815C107.246 27.3946 107.63 27.5011 108.094 27.5011Z" fill="#171E14"/>
<path d="M118.744 23.0764V29.3832H115.718V18.4741H118.602V20.3989H118.729C118.971 19.7644 119.376 19.2625 119.944 18.8932C120.512 18.5191 121.201 18.3321 122.011 18.3321C122.768 18.3321 123.429 18.4978 123.992 18.8293C124.556 19.1607 124.994 19.6342 125.306 20.2497C125.619 20.8605 125.775 21.5897 125.775 22.4372V29.3832H122.749V22.977C122.754 22.3094 122.584 21.7885 122.238 21.4145C121.892 21.0357 121.417 20.8463 120.81 20.8463C120.403 20.8463 120.043 20.9339 119.731 21.1091C119.423 21.2843 119.182 21.54 119.006 21.8761C118.836 22.2076 118.748 22.6077 118.744 23.0764Z" fill="#171E14"/>
<path d="M133.089 29.5963C131.971 29.5963 131.01 29.3596 130.205 28.8861C129.405 28.4079 128.789 27.745 128.358 26.8974C127.932 26.0499 127.719 25.0745 127.719 23.9713C127.719 22.8539 127.935 21.8738 128.366 21.031C128.801 20.1834 129.419 19.5229 130.219 19.0494C131.019 18.5712 131.971 18.3321 133.074 18.3321C134.026 18.3321 134.859 18.5049 135.574 18.8506C136.289 19.1962 136.855 19.6815 137.272 20.3065C137.688 20.9315 137.918 21.6654 137.961 22.5082H135.106C135.025 21.9637 134.812 21.5258 134.466 21.1943C134.125 20.8581 133.678 20.6901 133.124 20.6901C132.655 20.6901 132.246 20.8179 131.895 21.0736C131.55 21.3245 131.28 21.6915 131.086 22.1744C130.892 22.6574 130.794 23.2421 130.794 23.9287C130.794 24.6247 130.889 25.2166 131.079 25.7043C131.273 26.1919 131.545 26.5636 131.895 26.8193C132.246 27.075 132.655 27.2028 133.124 27.2028C133.47 27.2028 133.78 27.1318 134.054 26.9898C134.334 26.8477 134.563 26.6418 134.743 26.3719C134.928 26.0972 135.049 25.7682 135.106 25.3847H137.961C137.913 26.218 137.686 26.9519 137.279 27.5864C136.876 28.2161 136.32 28.7085 135.61 29.0636C134.9 29.4187 134.059 29.5963 133.089 29.5963Z" fill="#171E14"/>
<path d="M144.869 29.5963C143.747 29.5963 142.781 29.369 141.972 28.9145C141.167 28.4552 140.546 27.8065 140.111 26.9685C139.675 26.1257 139.457 25.129 139.457 23.9784C139.457 22.8562 139.675 21.8714 140.111 21.0239C140.546 20.1763 141.16 19.5158 141.95 19.0423C142.746 18.5688 143.679 18.3321 144.749 18.3321C145.468 18.3321 146.138 18.4481 146.759 18.6801C147.384 18.9074 147.928 19.2507 148.392 19.7099C148.861 20.1692 149.225 20.7469 149.486 21.4429C149.746 22.1342 149.877 22.9438 149.877 23.8719V24.7028H140.665V22.8278H147.029C147.029 22.3922 146.934 22.0063 146.744 21.6702C146.555 21.334 146.292 21.0712 145.956 20.8818C145.625 20.6877 145.239 20.5906 144.798 20.5906C144.339 20.5906 143.932 20.6972 143.577 20.9102C143.226 21.1186 142.952 21.4003 142.753 21.7554C142.554 22.1058 142.452 22.4964 142.448 22.9273V24.7099C142.448 25.2497 142.547 25.7161 142.746 26.1091C142.949 26.5021 143.236 26.8051 143.605 27.0182C143.975 27.2312 144.412 27.3378 144.919 27.3378C145.255 27.3378 145.563 27.2904 145.842 27.1957C146.122 27.101 146.361 26.959 146.56 26.7696C146.759 26.5802 146.91 26.3482 147.014 26.0736L149.813 26.2582C149.671 26.9306 149.379 27.5177 148.939 28.0196C148.503 28.5168 147.94 28.905 147.249 29.1844C146.562 29.459 145.769 29.5963 144.869 29.5963Z" fill="#171E14"/>
<path d="M20.1163 0.969238L0.309937 17.3949H4.99294V36.9999H34.4046V17.3949H39.5256L20.1163 0.969238ZM24.5534 31.2818H15.2813L17.2258 22.5322C16.0501 21.7154 15.2813 20.4852 15.2813 18.9788C15.2813 16.4972 17.3573 14.5359 19.9169 14.5359C22.4782 14.5359 24.5534 16.5723 24.5534 19.054C24.5534 20.5611 23.7846 21.7048 22.6097 22.5192L24.5534 31.2818Z" fill="#019267"/>
</svg>
